<svg width="320" height="96" viewBox="0 0 320 96" fill="none" xmlns="http://www.w3.org/2000/svg">
  <defs>
    <linearGradient id="gps-grad" x1="0" y1="48" x2="320" y2="48" gradientUnits="userSpaceOnUse">
      <stop offset="0" stop-color="#059669"/>
      <stop offset="1" stop-color="#10b981"/>
    </linearGradient>
  </defs>
  <!-- Truck/GPS icon -->
  <rect x="16" y="28" width="40" height="40" rx="10" fill="#059669" fill-opacity="0.12"/>
  <path d="M28 52V40a2 2 0 012-2h12a2 2 0 012 2v12M28 52h16M28 52v4a2 2 0 002 2h1a3 3 0 006 0h2a3 3 0 006 0h1a2 2 0 002-2v-8l-4-6h-6" stroke="#059669" stroke-width="2" stroke-linecap="round" stroke-linejoin="round" fill="none"/>
  <circle cx="33" cy="58" r="2" fill="#059669"/>
  <circle cx="47" cy="58" r="2" fill="#059669"/>
  <!-- GPS pin -->
  <circle cx="36" cy="34" r="3" fill="none" stroke="#10b981" stroke-width="1.5"/>
  <circle cx="36" cy="34" r="1" fill="#10b981"/>
  <path d="M36 37v3" stroke="#10b981" stroke-width="1.5" stroke-linecap="round"/>
  <!-- Text: GPS Tracker -->
  <text x="68" y="44" font-family="Inter, system-ui, sans-serif" font-size="22" font-weight="700" fill="#1f2937" letter-spacing="-0.5">GPS</text>
  <text x="68" y="66" font-family="Inter, system-ui, sans-serif" font-size="16" font-weight="500" fill="#6b7280" letter-spacing="0.5">Tracker</text>
  <!-- Signal waves -->
  <path d="M48 30c2-2 5-3 8-3" stroke="#10b981" stroke-width="1" stroke-linecap="round" fill="none" opacity="0.6"/>
  <path d="M48 26c3-3 7-5 12-5" stroke="#10b981" stroke-width="1" stroke-linecap="round" fill="none" opacity="0.3"/>
</svg>
